<svg xmlns="http://www.w3.org/2000/svg" width="33.946" height="29.702" viewBox="0 0 33.946 29.702"><defs><style>.a{fill:#fff;}</style></defs><path class="a" d="M1.212,65.456H32.733a1.212,1.212,0,0,0,1.212-1.212V61.212A1.212,1.212,0,0,0,32.733,60H1.212A1.212,1.212,0,0,0,0,61.212v3.031A1.212,1.212,0,0,0,1.212,65.456Zm0,12.124H32.733a1.212,1.212,0,0,0,1.212-1.212V73.336a1.212,1.212,0,0,0-1.212-1.212H1.212A1.212,1.212,0,0,0,0,73.336v3.031A1.212,1.212,0,0,0,1.212,77.579Zm0,12.123H32.733a1.212,1.212,0,0,0,1.212-1.212V85.459a1.212,1.212,0,0,0-1.212-1.212H1.212A1.212,1.212,0,0,0,0,85.459V88.49A1.212,1.212,0,0,0,1.212,89.7Z" transform="translate(0 -60)"/></svg>