<svg xmlns="http://www.w3.org/2000/svg" width="101.342" height="101.276" viewBox="0 0 101.342 101.276">
  <path id="redo-solid" d="M10.411,0h9.527a2.411,2.411,0,0,1,2.411,2.526l-.8,16.63a49.834,49.834,0,1,1,4.569,69.278,2.411,2.411,0,0,1-.1-3.5L32.851,78.1a2.411,2.411,0,0,1,3.291-.111A35.366,35.366,0,1,0,30.15,31.709l20.4-.979a2.411,2.411,0,0,1,2.526,2.411v9.527a2.411,2.411,0,0,1-2.411,2.411H10.411A2.411,2.411,0,0,1,8,42.669V2.411A2.411,2.411,0,0,1,10.411,0Z" transform="translate(-8 0)" fill="#fff"/>
</svg>
